<?xml version="1.0" encoding="utf-8"?>
<!-- Generator: Adobe Illustrator 27.5.0, SVG Export Plug-In . SVG Version: 6.00 Build 0)  -->
<svg version="1.1" xmlns="http://www.w3.org/2000/svg" xmlns:xlink="http://www.w3.org/1999/xlink" x="0px" y="0px"
	 viewBox="0 0 933 500" style="enable-background:new 0 0 933 500;" xml:space="preserve">
<g id="BACKGROUND">
	<rect id="XMLID_6_" style="fill:#FFFFFF;" width="933" height="500"/>
</g>
<g id="OBJECTS">
	<g>
		<defs>
			<rect id="XMLID_13_" width="933" height="500"/>
		</defs>
		<clipPath id="XMLID_00000005261918765580349390000015734833637630443911_">
			<use xlink:href="#XMLID_13_"  style="overflow:visible;"/>
		</clipPath>
		<g style="clip-path:url(#XMLID_00000005261918765580349390000015734833637630443911_);">
			<path style="fill:#8F5952;" d="M700.604,287.278c1.625-1.738,3.095-3.585,3.799-5.828c0.249-0.792,0.385-1.683,0.02-2.428
				c-1.738-3.547-5.748,3.612-6.481,4.734c-0.979,1.498-2.328,2.825-3.501,4.206c-0.944,1.111-1.948,2.174-3.009,3.175
				c-0.401,0.378-0.82,0.666-1.168,1.084c-0.146,0.175-0.287,0.349-0.434,0.515c-0.077-0.116-0.15-0.234-0.23-0.347
				c0.786-0.956,1.604-1.889,2.362-2.876c1.097-1.429,2.19-2.861,3.278-4.297c2.248-2.969,4.4-5.959,6.485-9.037
				c0.405-0.598,0.817-1.21,1.007-1.907c0.19-0.697,0.122-1.506-0.355-2.049c-0.687-0.783-1.986-0.727-2.861-0.163
				c-1.904,1.228-11.804,18.01-13.226,17.154c-0.718-0.432-1.462-0.892-2.196-1.327c2.791-4.33,6.258-8.37,8.601-12.953
				c0.41-0.803,0.799-1.675,0.698-2.571c-0.101-0.896-0.882-1.774-1.775-1.652c-0.527,0.072-0.951,0.455-1.327,0.831
				c-3.558,3.555-6.037,8.016-8.911,12.144c-2.873,4.128-6.372,8.104-11.056,9.936c-0.959-4.799,1.949-9.905,0.396-14.546
				c-0.2-0.598-0.506-1.21-1.059-1.511c-0.871-0.475-2.017,0.051-2.557,0.884c-0.54,0.832-0.627,1.87-0.684,2.861
				c-0.307,5.324-0.228,10.843-2.383,15.72c-0.723,1.637-1.684,3.16-2.396,4.801c-1.365,3.142-1.779,6.69-1.174,10.063
				c0.217,1.208,0.562,2.419,0.449,3.64c-0.079,0.853-0.379,1.669-0.68,2.471c-1.86,4.955-3.872,9.853-6.03,14.685
				c-1.899,4.252-2.117,8.608-1.127,13.167c1.315,6.051,5.188,11.503,10.469,14.736c3.539,2.167,8.732,3.07,11.403-0.105
				c1.227-1.458,1.595-3.434,1.899-5.315c1.787-11.035,1.623-22.163,2.794-33.081c0.594-5.536,5.423-9.894,9.096-13.627
				c4.825-4.905,10.184-9.227,14.892-14.287c1.854-1.992,3.714-4.172,4.262-6.838c0.119-0.579,0.161-1.225-0.163-1.719
				c-0.476-0.727-1.575-0.798-2.341-0.389c-0.766,0.409-1.279,1.161-1.763,1.887c-1.518,2.278-3.055,4.588-5.003,6.527
				c-0.752,0.749-2.104,2.308-3.2,2.508c-1.392,0.254-2.071-0.594-1.082-1.891c1.155-1.513,2.393-2.964,3.707-4.342
				C698.885,289.043,699.765,288.175,700.604,287.278z"/>
			<path style="fill:#FFCA00;" d="M681.681,414.842c4.122-11.555,6.504-23.867,7.902-36.072c1.032-9.002,1.572-18.228-0.574-27.032
				c-0.868-3.562-2.223-7.105-4.678-9.827c-6.145-6.811-29.144-10.419-35.807-3.107c-1.89,2.074-2.631,4.918-3.31,7.641
				c-1.503,6.029-3.005,12.058-4.508,18.087c-3.663,14.695-3.682,27.606-1.933,42.503c1.377,11.725-12.29,17.057-7.773,27.964
				c1.444,3.488,14.315,13.947,17.829,15.327c6.85,2.689,14.046-2.97,18.56-8.782C673.641,433.495,678.26,424.429,681.681,414.842z"
				/>
			<g>
				<path style="fill:#206F96;" d="M479.645,530.397c0.36-11.81,1.446-23.718,3.441-35.291c1.468-8.52,3.417-16.857,5.902-24.834
					c9.089-29.182,39.042-48.956,67.617-55.95c5.577-1.365,11.424-2.326,17.197-1.739c16.153,1.642,26.855,14.463,33.5,26.686
					c15.498,28.51,20.675,59.778,23.078,91.128H479.645z"/>
				<path style="fill:#09222F;" d="M557.529,201.157c-4.512-0.653-8.858-0.327-12.295,1.221c-3.919,1.765-7.543,5.878-6.24,9.973
					c-3.597,0.311-7.115,1.507-10.156,3.453c-2.351,1.505-4.595,3.881-4.347,6.661c0.377,4.226,5.887,5.97,7.685,9.813
					c-2.916,1.569-6.33,4.368-5.112,7.447c0.639,1.614,2.345,2.476,3.701,3.56c4.024,3.218,5.174,8.724,7.279,13.428
					c1.618,3.617,6.207,9.694,10.77,7.521c1.692-0.806,3.518-3.456,5.025-4.681c2.319-1.886,4.721-3.671,7.037-5.563
					c8.52-6.963,16.964-14.91,21.069-25.37C587.361,214.818,571.637,203.199,557.529,201.157z"/>
				<path style="fill:#09222F;" d="M521.984,308.574c3.941-8.21,12.548-13.397,21.421-15.45c12.299-2.846,31.46-5.466,43.425,0.118
					c7.931,3.701,12.107,12.36,14.558,20.306c3.112,10.087,5.898,16.396,11.171,25.832c11.081,19.83,16.865,42.632,16.367,65.354
					c-0.294,13.401-4.09,28.706-16.126,34.606c-5.517,2.704-11.881,2.921-18.025,3.024c-21.228,0.356-42.467-0.026-63.669-1.144
					c-2.041-0.107-4.188-0.256-5.897-1.376c-1.893-1.241-2.89-3.434-3.792-5.51c-5.9-13.585-9.798-23.449-10.657-38.101
					c-0.877-14.959-0.92-29.84-0.92-44.815c0.189-8.46,0.209-13.909,4.282-20.998C518.105,323.488,518.58,315.664,521.984,308.574z"
					/>
				<path style="fill:#FFCA00;" d="M593.879,446.251c-2.29-14.772-5.116-29.348-6.912-44.315c-1.17-9.752-0.052-19.548,0.008-29.323
					c0.03-4.863,0.297-10.566-1.132-15.271c-1.185-3.901-2.916-6.646-3.292-10.964c-0.782-8.991-1.927-17.95-3.43-26.848
					c-1.391-8.238-2.484-16.687-5.738-24.365c-1.076-2.538-1.919-5.365-1.192-8.024c0.574-2.102,16.842,4.596,18.257,5.25
					c6.925,3.199,14.868,3.414,22.118,6.302c4.779,1.904,9.516,4.11,13.462,7.41c6.672,5.58,10.59,13.964,12.021,22.543
					c1.368,8.196,0.974,16.574,4.912,24.125c3.897,7.472,6.491,15.286,6.262,23.878c-0.363,13.608-5.103,27.063-8.046,40.243
					c-3.037,13.602-3.861,26.116-8.237,39.262c-2.426,7.288-3.173,15.046-11.074,18.751c-7.5,3.516-16.412,0.029-24.587,1.365
					C596.697,466.06,595.408,456.112,593.879,446.251z"/>
				<path style="fill:#8F5952;" d="M539.443,258.458c-0.295-8.613-0.437-19.029,5.115-26.196
					c8.215-10.607,28.277-10.491,37.221-0.607c2.05,2.266,3.23-1.207,4.313,1.651c5.956,15.715,1.715,37.215-3.188,42.342
					c-4.374,4.574-11.021,6.873-11.084,6.423c0.4,2.846,0.782,6.741,0.645,9.639c-0.272,5.711-1.523,12.651-7.529,14.999
					c-7.939,3.104-25.069,2.677-26.589-8.548c-0.186-1.371-0.093-2.763,0.001-4.144c0.611-9.034,1.157-17.875,1.212-26.809
					C539.577,264.305,539.543,261.391,539.443,258.458z"/>
				<g>
					<path style="fill:#8F5952;" d="M547.365,256.103c0,4.599-3.728,8.327-8.327,8.327c-4.599,0-8.327-3.728-8.327-8.327
						c0-4.599,3.728-8.327,8.327-8.327C543.637,247.776,547.365,251.504,547.365,256.103z"/>
					<path style="fill:#09222F;" d="M540.449,252.334c-1.852,0.188-3.536,1.538-4.121,3.305c-0.585,1.767-0.041,3.855,1.333,5.112"
						/>
				</g>
				<g>
					<defs>
						<path id="SVGID_1_" d="M539.559,267.208c0.018-2.904-0.016-5.817-0.116-8.75c-0.322-9.397-0.256-19.018,4.479-27.419
							c4.785-8.49,13.354-10.666,22.901-9.18c8.195,1.275,11.463,4.117,14.09,11.354c3.33,9.169,5.007,17.553,4.977,27.381
							c-0.015,4.767-0.249,9.695-2.33,13.985c-2.081,4.289-6.464,7.799-11.218,7.444c0.216,8.181,1.425,21.233-7.407,24.686
							c-7.939,3.104-25.069,2.677-26.589-8.548c-0.186-1.371-0.093-2.763,0.001-4.144
							C538.958,284.983,539.504,276.142,539.559,267.208z"/>
					</defs>
					<clipPath id="SVGID_00000031202506874242558190000009102751637874028180_">
						<use xlink:href="#SVGID_1_"  style="overflow:visible;"/>
					</clipPath>
					<path style="clip-path:url(#SVGID_00000031202506874242558190000009102751637874028180_);fill:#09222F;" d="M578.337,289.204
						c-2.49,0.91-5.258-0.059-7.618-1.269c-3.664-1.878-7.133-4.498-8.977-8.18c3.311,1.628,6.996,2.489,10.686,2.495
						c1.385,0.002,2.767-0.114,4.147-0.23c1.914-0.161,3.828-0.322,5.743-0.483"/>
				</g>
				<path style="fill:#FFCA00;" d="M475.424,372.115c-2.348,14.676-2.587,29.32-3.113,44.104
					c-0.527,14.819-3.061,28.911,1.174,43.606c1.848,6.412,4.597,12.698,4.787,19.368c15.705,0.587,61.455,9.958,73.572-4.105
					c3.125-3.626,2.669-8.976,2.792-13.762c0.347-13.51,9.955-22.013,9.493-35.337c-0.473-13.626-2.095-27.226-4.733-40.601
					c-1.996-10.12-5.137-20.067-5.818-30.36c-0.276-4.175-0.15-8.418-1.179-12.474c-1.132-4.461-3.596-8.443-5.636-12.568
					c-3.396-6.865-5.487-14.279-6.593-21.843c-0.559-3.825-0.875-7.681-1.042-11.542c-0.148-3.418,0.351-7.143-0.101-10.531
					c-0.023-0.169-0.048-0.338-0.075-0.506c-6.295,2.53-12.997,4.045-19.769,4.468c-3.571,0.223-7.561,2.617-10.856,4.08
					c-3.9,1.732-7.51,4.095-10.75,6.865c-6.451,5.516-11.605,12.734-14.51,20.724c-2.909,8.001-3.905,16.762-4.029,25.217
					C478.913,355.466,476.794,363.55,475.424,372.115z"/>
				<path style="fill:#8F5952;" d="M451.478,407.183c-1.03-2.956-1.344-6.109,0.095-8.34c3.335-5.169,12.204-5.241,17.33-3.756
					c5.855,1.697,10.874,5.427,15.751,9.084c5.087,3.815,9.981,9.411,16.065,11.59c1.375,0.493,2.817,0.769,4.252,1.043
					c2.253,0.431,4.507,0.861,6.76,1.291c0.435,0.083,0.914,0.194,1.166,0.557c0.168,0.242,0.02,1.054,0.225,0.843
					c1.55-1.593,0.538,10.855-5.179,16.759c-2.084,2.152-7.761,9.561-8.163,9.577c-0.32,0.012-0.614-0.168-0.878-0.35
					c-5.904-4.061-10.392-9.918-16.448-14.034c-6.503-4.421-13.802-7.603-20.378-12.037c-2.551-1.72-5.14-3.475-7.093-5.853
					C453.72,412.02,452.345,409.672,451.478,407.183z"/>
				<path style="fill:#09222F;" d="M536.361,229.184c1.755-7.342,13.337-8.263,19.356-8.074
					c2.939-9.592,10.762-21.799,21.861-22.496c2.995-0.188,6.72,1.36,6.725,4.361c0.005,2.682-3.03,4.582-3.183,7.26
					c3.712-3.32,8.394-5.543,13.313-6.321c3.459-0.547,7.757,0.067,9.193,3.261c1.111,2.472-0.083,5.428-1.895,7.443
					c-0.225,0.251-0.48,0.471-0.72,0.706c3.032-0.25,6.218-0.102,9.004,1.003c3.263,1.295,6.024,4.281,5.709,8.014
					c-0.349,4.132-4.375,5.997-7.835,7.229c-0.912,0.325-1.841,0.584-2.778,0.794c0.58,0.626,1.123,1.289,1.608,2.009
					c1.976,2.93,2.452,6.733-0.407,9.293c-2.296,2.056-7.435,3.223-10.225,1.839c-2.384-1.182-3.313-3.488-5.089-5.357
					c-0.637,3.759-2.117,7.379-5.841,9.035c-5.229,2.326-10.605-1.312-12.727-6.112c-0.63-1.425-1.092-2.911-1.406-4.428
					c-0.778,0.572-1.579,1.109-2.431,1.551c-2.343,1.214-5.298,2.223-7.76,0.709c-2.168-1.333-3.059-3.942-2.838-6.386
					c-4.137,3.465-10.227,6.103-15.34,4.491C538.574,237.72,535.366,233.347,536.361,229.184z"/>
				<path style="fill:#FFCA00;" d="M400.959,378.264c-2.334-8.656-2.243-19.003,4.132-25.306c4.72-4.668,11.978-6.175,16.41-11.117
					c4.812-5.366,5.211-13.557,9.722-19.179c7.616-9.493,22.601-7.529,33.423-13.097c3.9-2.007,7.207-4.984,10.894-7.36
					c2.133-1.374,4.416-2.6,6.81-3.694c12.951-5.915,29.159-7.958,42.622-8.7c3.185-0.176,6.639-0.279,9.257,1.544
					c2.336,1.627,3.492,4.449,4.362,7.161c0.764,2.382,1.408,4.897,0.994,7.364c-0.414,2.467-2.146,4.871-4.605,5.332
					c-11.387,2.136-10.536,10.6-18.39,17.13c-7.822,6.504-18.326,6.158-25.691,14.648c-4.791,5.522-3.325,11.952-4.365,19.344
					c-0.702,4.989-9.521,9.588-13.767,12.178c-2.318,1.414-7.413,3.252-8.926,1.235c0.807,3.933,8.976,3.026,17.703,15.802
					c3.461,5.066,1.791,12.758-2.662,16.604c-3.519,3.04-8.713,4.375-10.859,8.501c-0.77,1.48-1.048,3.179-1.838,4.648
					c-1.916,3.56-6.331,4.944-10.362,5.249c-7.734,0.587-13.775-1.936-20.415-5.375c-9.392-4.864-14.306-12.98-21.309-20.338
					C407.672,394.087,403.46,387.544,400.959,378.264z"/>
				<path style="fill:#FFFFFF;" d="M583.431,262.424c-1.463,4.51-3.331,6.901-6.888,7.34c-4.723,0.583-7.29-2.539-8.714-6.046"/>
				<path style="fill:none;stroke:#09222F;stroke-miterlimit:10;" d="M511.397,336.198c-0.555,10.495-4.307,21.84-13.424,27.068
					c-5.745,3.295-12.867,3.88-18.475,6.673c-4.264,2.125-9.44,8.397-15.242,6.385c1.467,2.327,4.499,3.572,6.851,4.998
					c2.766,1.678,4.936,4.159,7.059,6.601c3.904,4.49,7.842,8.199,5.086,14.638c-1.485,3.467-4.414,6.132-7.603,8.144
					c-1.792,1.131-3.699,2.098-5.347,3.432c-2.047,1.658-3.646,3.864-4.583,6.327"/>
				<path style="fill:none;stroke:#09222F;stroke-miterlimit:10;" d="M571.507,480.969c0.501,15.033-5.214,34.37-9.035,48.728"/>
				<path style="fill:none;stroke:#09222F;stroke-miterlimit:10;" d="M513.614,415.144c1.1,7.413-1.004,15.246-5.67,21.111
					c-3.206,4.029-7.618,7.277-9.492,12.073"/>
				<path style="fill:none;stroke:#09222F;stroke-miterlimit:10;" d="M567.134,249.588c-1.131-1.955-3.352-3.228-5.611-3.217
					c-2.258,0.011-4.467,1.307-5.578,3.273"/>
				<path style="fill:none;stroke:#09222F;stroke-miterlimit:10;" d="M588.313,249.588c-1.131-1.955-3.352-3.228-5.611-3.217
					c-2.259,0.011-4.467,1.307-5.579,3.273"/>
				<path style="fill:none;stroke:#09222F;stroke-miterlimit:10;" d="M637.5,441.5c-12.056-6.564-19.364-38.001-18.612-50.86
					c0.369-6.298,1.528-12.599,0.903-18.877c-0.524-5.262-2.285-10.308-3.572-15.437c-1.836-7.315-2.714-14.833-3.521-22.332"/>
			</g>
			<path style="fill:#09222F;" d="M588.415,345.895c0,1.649,1.337,2.985,2.985,2.985c1.649,0,2.985-1.337,2.985-2.985
				c0-1.649-1.337-2.986-2.985-2.986C589.752,342.909,588.415,344.246,588.415,345.895z"/>
			<path style="fill:#09222F;" d="M593.377,364.855c0,1.649,1.337,2.985,2.985,2.985c1.649,0,2.986-1.336,2.986-2.985
				c0-1.649-1.337-2.985-2.986-2.985C594.714,361.87,593.377,363.206,593.377,364.855z"/>
			<path style="fill:#09222F;" d="M595.394,385.026c0,1.649,1.337,2.985,2.985,2.985c1.649,0,2.985-1.337,2.985-2.985
				c0-1.649-1.337-2.985-2.985-2.985C596.731,382.04,595.394,383.377,595.394,385.026z"/>
			<path style="fill:#09222F;" d="M597.411,406.003c0,1.649,1.337,2.985,2.985,2.985c1.649,0,2.986-1.337,2.986-2.985
				c0-1.649-1.337-2.985-2.986-2.985C598.748,403.018,597.411,404.354,597.411,406.003z"/>
			<path style="fill:none;stroke:#09222F;stroke-miterlimit:10;" d="M643.505,353.996c-0.167,8.571-4.358,16.46-7.141,24.569
				c-3.406,9.928-4.748,20.559-3.914,31.021"/>
		</g>
		<g style="clip-path:url(#XMLID_00000005261918765580349390000015734833637630443911_);">
			<g>
				<path style="fill:#09222F;" d="M342.079,261.144c0.831,2.253,2.1,4.371,3.806,6.223c3.782,4.105,9.638,6.479,15.427,6.254
					c6.637-0.259,13.351-3.949,16.591-9.962c0.83-1.541,1.343-3.236,1.68-4.954c1.105-5.643,0.217-11.825-3.195-16.454
					c-2.308-3.132-6.907-6.251-10.719-7.146c-7.467-1.754-15.83,1.182-20.562,7.219C340.81,247.808,339.806,254.98,342.079,261.144z
					"/>
				<path style="fill:#E3324F;" d="M321.457,377.785c-2.322-7.856,2.224-15.246,1.67-23.42c-4.185-0.461-14.264,0.592-18.048,2.439
					c-14.573,7.113-28.321,15.922-40.301,26.892c-11.023,10.095-17.526,24.44-25.336,37.167
					c-19.049,31.042-33.602,64.843-43.009,100.029c-2.501,9.353-3.946,23.026,7.6,26.719c4.868,1.557,8.389-0.921,13.009-1.058
					c5.255-0.155,12.291,3.439,17.191,0.506c1.502-0.899,2.455-2.465,3.349-3.971c14.825-24.97,29.651-49.941,44.476-74.911
					c12.11-20.397,27.871-35.857,38.047-57.87c2.511-5.432,4.814-11.17,4.76-17.155C324.818,387.887,322.95,382.836,321.457,377.785
					z"/>
				<path style="fill:#09222F;" d="M349.297,318.964c0.213-0.012,0.426-0.027,0.639-0.044c6.479-0.526,13.366-2.923,16.955-8.674
					c2.326-3.727,3.293-8.151,3.672-12.528c0.301-3.47,0.252-6.997-0.509-10.396c-0.986-4.402-3.168-8.512-6.159-11.889
					c-4.278-4.831-8.717-5.869-14.318-8.195c-14.031-5.825-29.743,0.126-36.399,13.756c-4.245,8.694-0.636,21.673,1.856,31.022
					c1.927,7.23,2.498,5.682,9.571,6.271c4.799,0.399,9.63,0.065,14.441,0.283C342.465,318.725,345.886,319.158,349.297,318.964z"/>
				<path style="fill:#ED926E;" d="M393.656,372.604c-4.702-7.008-21.156-16.897-30.035-20.254
					c-14.537-5.496-33.037-5.191-47.36,0.908c-14.9,6.345-19.217,10.361-28.196,23.838c37.823,1.264,67.716,11.572,105.348,15.578
					C391.355,383.874,398.396,379.669,393.656,372.604z"/>
				<path style="fill:#ED926E;" d="M360.788,314.918c0.625-9.657-0.092-19.23-4.993-26.034c-3.605-5.004-9.646-7.539-15.574-8.471
					c-6.456-1.014-12.852,0.731-19.185,1.785c-5.687,0.947-7.659,3.752-9.06,9.522c-0.324,1.336-0.525,2.699-0.675,4.066
					c-0.751,6.833-0.004,13.543,0.844,20.317c0.615,4.913,1.782,9.941,4.393,14.207c2.479,4.05,10.015,7.304,10.092,6.87
					c-0.188,3.922,1.23,9.515-2.243,12.373c-1.85,1.522-4.573,1.606-6.436,3.112c10.646,6.645,18.723,13.766,32.209,9.652
					c2.052-0.626,18.192-7.881,19.129-6.877c-3.142-2.973-8.169-3.839-10.391-7.55c-1.512-2.526-1.277-5.686-0.995-8.616
					C358.568,332.404,360.224,323.627,360.788,314.918z"/>
				<g>
					<defs>
						<path id="SVGID_00000034795869104846187990000013189672016904028814_" d="M359.525,323.479
							c0.081-2.861,0.215-5.73,0.414-8.615c0.638-9.246,0.902-18.725-3.475-27.163c-4.424-8.527-12.79-10.963-22.245-9.826
							c-8.116,0.976-11.432,3.664-14.268,10.702c-3.593,8.919-5.532,17.12-5.838,26.802c-0.149,4.697-0.086,9.559,1.817,13.855
							c1.903,4.296,6.101,7.904,10.796,7.717c-0.492,8.052-2.13,20.867,6.453,24.571c7.715,3.329,24.603,3.495,26.484-7.511
							c0.23-1.344,0.186-2.719,0.141-4.082C359.509,341.01,359.274,332.282,359.525,323.479z"/>
					</defs>
					<clipPath id="SVGID_00000162332909174509016680000000502064339969826719_">
						<use xlink:href="#SVGID_00000034795869104846187990000013189672016904028814_"  style="overflow:visible;"/>
					</clipPath>
					<path style="clip-path:url(#SVGID_00000162332909174509016680000000502064339969826719_);fill:#09222F;" d="M320.573,343.821
						c2.422,0.982,5.182,0.122,7.547-0.989c3.674-1.725,7.181-4.187,9.123-7.751c-3.317,1.491-6.977,2.212-10.612,2.092
						c-1.364-0.045-2.721-0.207-4.077-0.368c-1.88-0.224-3.76-0.448-5.64-0.671"/>
				</g>
				<path style="fill:#FFFFFF;" d="M318.606,321.392c1.611,3.973,3.45,6.008,6.687,6.174c4.297,0.22,6.41-2.761,7.467-6.017"/>
				<path style="fill:#09222F;" d="M358.057,282.877c-5.681-5.953-11.098-9.236-19.474-10.021
					c-7.72-0.723-15.693,0.935-22.366,4.921c-3.644,2.176-4.56,6.864-5.313,10.738c-0.039,0.199-0.071,0.417,0.028,0.593
					c0.094,0.167,0.282,0.254,0.46,0.327c4.177,1.708,8.328,2.138,12.815,2.341c6.752,0.306,13.503,0.611,20.255,0.916
					c0.482,0.022,0.988,0.039,1.42-0.176c0.687-0.342,0.978-1.15,1.207-1.883c0.598-1.914,1.023-5.685,2.663-6.971
					c1.245,2.634,1.074,6.471,1.733,9.369c0.739,3.252,1.938,6.337,3.775,9.131c0.605,0.92,1.294,1.848,2.286,2.325
					c1.95,0.938,5.662-0.332,6.617-2.277c0.912-1.857-0.241-4.619-0.434-6.523C363.249,290.952,361.366,286.344,358.057,282.877z"/>
				<path style="fill:#E3324F;" d="M452.542,463.835c-2.795-14.538-6.931-28.914-10.924-43.793
					c-1.518-5.658-3.037-11.33-5.022-16.847c-1.616-4.491-2.728-9.78-5.317-13.766c-5.746-8.848-14.517-15.598-23.743-20.495
					c-10.895-5.783-22.829-9.281-34.668-12.742c-1.761,3.421-3.775,5.613-7.123,7.639c-4.887,2.945-10.527,4.699-16.151,5.528
					c-5.622,0.828-11.332,0.103-16.793-1.372c-7.921-2.139-15.946-6.362-20.839-12.883c-4.817,2.415-9.632,4.836-14.36,7.419
					c-11.482,6.273-15.958,17.725-18.296,30.145c-2.776,14.751-8.043,29.016-6.153,44.373c0.149,1.213,0.348,2.467,1.026,3.485
					c0.688,1.033,1.786,1.702,2.795,2.425c8.658,6.211,5.899,16.45,5.128,25.56c-0.959,11.318-1.867,22.641-2.723,33.967
					c-0.893,11.808-1.731,23.621-2.514,35.437c-0.258,3.904-2.347,12.186-1.455,16.53c0,0,148.426,5.151,148.426,5.151
					c-6.522-0.226,2.383-6.414,2.349-6.388c4.104-3.17,9.992-3.985,14.237-7.499c9.073-7.51,12.825-19.686,14.37-31.362
					C457.128,496.677,455.68,480.153,452.542,463.835z"/>
				<g>
					<path d="M274.915,415.803c-0.118,3.402-2.972,6.064-6.373,5.946c-3.402-0.118-6.064-2.971-5.946-6.373
						c0.118-3.402,2.972-6.064,6.373-5.946C272.371,409.548,275.034,412.401,274.915,415.803z"/>
					<path d="M217.915,512.803c-0.118,3.402-2.972,6.064-6.373,5.946c-3.402-0.118-6.064-2.971-5.946-6.373
						c0.118-3.402,2.972-6.064,6.373-5.946C215.371,506.548,218.034,509.401,217.915,512.803z"/>
					<path d="M322.229,411.524c-0.118,3.402-2.971,6.064-6.373,5.946c-3.402-0.118-6.064-2.972-5.946-6.373
						c0.118-3.402,2.971-6.064,6.373-5.946C319.686,405.268,322.348,408.122,322.229,411.524z"/>
					<path d="M296.551,380.038c-0.118,3.402-2.971,6.064-6.373,5.946c-3.402-0.118-6.064-2.971-5.946-6.373
						c0.118-3.402,2.971-6.064,6.373-5.946C294.008,373.782,296.67,376.636,296.551,380.038z"/>
					<path d="M258.551,501.038c-0.118,3.402-2.971,6.064-6.373,5.946c-3.402-0.118-6.064-2.971-5.946-6.373
						c0.118-3.402,2.971-6.064,6.373-5.946C256.008,494.782,258.67,497.636,258.551,501.038z"/>
					<path d="M246.716,438.542c-0.118,3.402-2.971,6.064-6.373,5.946c-3.402-0.118-6.064-2.972-5.946-6.373
						c0.118-3.402,2.971-6.064,6.373-5.946C244.172,432.287,246.834,435.14,246.716,438.542z"/>
					<path d="M380.158,513.961c-0.118,3.402-2.971,6.064-6.373,5.946c-3.402-0.118-6.064-2.971-5.946-6.373
						c0.118-3.402,2.971-6.064,6.373-5.946C377.613,507.706,380.275,510.56,380.158,513.961z"/>
					<path d="M400.913,466.877c-0.118,3.402-2.971,6.064-6.373,5.946c-3.402-0.118-6.064-2.971-5.946-6.373
						c0.118-3.402,2.971-6.064,6.373-5.946C398.37,460.622,401.031,463.475,400.913,466.877z"/>
					<path d="M336.849,445.324c-0.118,3.402-2.971,6.064-6.373,5.946c-3.402-0.118-6.064-2.971-5.946-6.373
						c0.118-3.402,2.971-6.064,6.373-5.946C334.306,439.069,336.968,441.922,336.849,445.324z"/>
					<path d="M336.079,509.942c-0.118,3.402-2.971,6.064-6.373,5.946c-3.402-0.118-6.064-2.971-5.946-6.373
						c0.118-3.402,2.971-6.064,6.373-5.946C333.535,503.687,336.197,506.54,336.079,509.942z"/>
					<path d="M362.241,469.634c-0.118,3.402-2.971,6.064-6.373,5.946c-3.402-0.118-6.064-2.971-5.946-6.373
						c0.118-3.402,2.971-6.064,6.373-5.946C359.697,463.378,362.359,466.232,362.241,469.634z"/>
					<path d="M362.146,402.589c-0.118,3.402-2.971,6.064-6.373,5.946c-3.402-0.118-6.064-2.971-5.946-6.373s2.972-6.064,6.373-5.946
						C359.602,396.333,362.264,399.187,362.146,402.589z"/>
					<path d="M398.783,381.098c-0.118,3.402-2.971,6.064-6.373,5.946c-3.402-0.118-6.064-2.971-5.946-6.373
						c0.118-3.402,2.971-6.064,6.373-5.946C396.239,374.843,398.901,377.697,398.783,381.098z"/>
					<path d="M406.618,541.039c-0.118,3.402-2.971,6.064-6.373,5.946c-3.402-0.118-6.064-2.971-5.946-6.373
						c0.118-3.402,2.971-6.064,6.373-5.946C404.074,534.783,406.736,537.637,406.618,541.039z"/>
					<path d="M305.458,483.532c-0.118,3.402-2.971,6.064-6.373,5.946c-3.402-0.118-6.064-2.972-5.946-6.374
						c0.118-3.402,2.971-6.064,6.373-5.946C302.914,477.277,305.576,480.131,305.458,483.532z"/>
					<path d="M392.649,430.639c-0.118,3.402-2.972,6.064-6.373,5.946c-3.402-0.118-6.064-2.971-5.946-6.373
						c0.118-3.402,2.972-6.064,6.373-5.946C390.105,424.384,392.767,427.238,392.649,430.639z"/>
					<path d="M429.349,420.01c-0.118,3.402-2.972,6.064-6.373,5.946c-3.402-0.118-6.064-2.972-5.946-6.373
						c0.118-3.402,2.972-6.064,6.373-5.946C426.805,413.754,429.467,416.608,429.349,420.01z"/>
					<path d="M431.349,497.01c-0.118,3.402-2.972,6.064-6.373,5.946c-3.402-0.118-6.064-2.972-5.946-6.373
						c0.118-3.402,2.972-6.064,6.373-5.946C428.805,490.754,431.467,493.608,431.349,497.01z"/>
					<path d="M278.296,447.275c-0.118,3.402-2.972,6.064-6.373,5.946c-3.402-0.118-6.064-2.971-5.946-6.373
						c0.118-3.402,2.972-6.064,6.373-5.946C275.752,441.019,278.414,443.873,278.296,447.275z"/>
					<path d="M244.296,476.275c-0.118,3.402-2.972,6.064-6.373,5.946c-3.402-0.118-6.064-2.971-5.946-6.373
						c0.118-3.402,2.972-6.064,6.373-5.946C241.752,470.019,244.414,472.873,244.296,476.275z"/>
					<path d="M448.077,458.904c-0.118,3.402-2.972,6.064-6.373,5.946c-3.402-0.118-6.064-2.971-5.946-6.373
						c0.118-3.402,2.972-6.064,6.373-5.946C445.533,452.648,448.196,455.502,448.077,458.904z"/>
				</g>
				<g>
					<path style="fill:#ED926E;" d="M352.011,312.247c-0.148,4.531,3.405,8.323,7.936,8.471c4.531,0.148,8.323-3.405,8.471-7.936
						c0.148-4.531-3.405-8.323-7.936-8.471C355.951,304.163,352.159,307.716,352.011,312.247z"/>
					<path style="fill:#09222F;" d="M358.945,308.756c1.819,0.245,3.434,1.629,3.954,3.389c0.52,1.76-0.083,3.799-1.477,4.993"/>
				</g>
				<path style="fill:none;stroke:#000000;stroke-miterlimit:10;" d="M416.5,521.5c-0.899-19.696-4.831-85.887-8.089-105.332"/>
				<path style="fill:none;stroke:#000000;stroke-miterlimit:10;" d="M281.923,465.889c8.185-8.667,14.8-22.908,20.727-33.251"/>
			</g>
		</g>
		<g style="clip-path:url(#XMLID_00000005261918765580349390000015734833637630443911_);">
			<g>
				<path style="fill:#ED926E;" d="M9.064,508.766c0,10.206,0.816,21.798,8.72,28.254c9.521,7.775,24.838,3.192,32.493-6.425
					c7.655-9.618,9.576-22.473,10.857-34.699c2.157-20.599,3.259-41.487,0.131-61.96c-1.61-10.537-10.33-34.304-25.699-27.406
					c-2.415,1.084-4.236,3.151-5.835,5.261c-10.655,14.061-14.557,31.953-18.182,49.219C8.297,476.5,9.064,492.967,9.064,508.766z"
					/>
				<path style="fill:#206F96;" d="M62.096,465.043c-0.542,5.308-0.893,10.644-1.182,15.965
					c-0.69,12.747-10.235,38.378-6.658,54.912l133.106-4.617c1.622-18.541,2.497-37.147,2.638-55.758
					c0.072-9.554-0.047-19.109-0.353-28.658c-0.817-25.525,0.797-55.423-12.51-78.187c-5.135-8.784-12.583-15.835-20.161-22.49
					c-6.912-6.071-15.581-8.013-24.609-9.495c-20.822-3.419-52.334-2.416-71.178,7.773c-13.596,7.352-23.085,20.329-30.593,33.956
					c-0.728,1.322-1.438,2.65-2.131,3.98c-10.661,20.457-18.502,42.381-23.234,64.959C4.963,448.664,44.777,460.457,62.096,465.043z
					"/>
				<path style="fill:#ED926E;" d="M155.743,422.553c4.049,19.607,10.711,38.677,19.803,56.516
					c3.716,7.29,8.274,14.799,15.679,18.28c6.447,3.031,14.509,1.239,19.343-3.938c4.971-5.325,3.52-11.523,2.566-18.406
					c-4.222-30.448-16.114-59.547-29.245-87.148c-0.919-1.931-1.872-3.888-3.333-5.45c-2.178-2.329-5.259-3.553-8.249-4.66
					c-3.952-1.462-8.345-2.845-12.282-1.344c-15.48,5.903-6.575,35.012-4.304,46.039
					C155.728,422.479,155.736,422.516,155.743,422.553z"/>
				<path style="fill:#206F96;" d="M165.065,424.163c-10.988,1.844-18.472-0.623-29.486,1.053
					c-4.241-19.105-10.847-37.484-14.514-56.909c-1.039-5.505-2.009-11.112-1.426-16.683c0.583-5.572,2.923-11.192,7.395-14.567
					c3.3-2.491,7.482-3.567,11.607-3.854c17.559-1.223,44.723,7.384,52.467,21.515c10.041,18.323,7.051,46.947,15.191,66.191
					C194.904,423.007,176.492,422.246,165.065,424.163z"/>
				<path style="fill:#ED926E;" d="M85.809,334.688c0.003,0.173,0.006,0.346,0.009,0.519c0.125,6.881-0.098,14.113,0.834,20.939
					c0.768,5.621,5.879,5.974,10.901,6.128c5.337,0.164,10.853-0.109,15.691-2.367c3.464-1.617,6.59-4.449,8.087-8.017
					c0.398-0.948,2.257-10.012,2.201-10.001c6.447-1.338,11.784-5.247,14.939-11.048c6.037-11.099,4.774-24.863,4.331-36.986
					c-0.232-6.327-0.505-12.84-3.122-18.605c-0.742-1.635-1.709-3.236-3.175-4.272c-1.544-1.091-3.48-1.448-5.359-1.65
					c-3.097-0.333-6.231-0.32-9.326,0.037c-1.386,0.16-2.725,0.541-4.098,0.593c-1.485,0.057-2.944,0.034-4.425,0.226
					c-6.063,0.788-10.937,4.064-16.551,6.074c-4.537,1.625-6.845,4.72-8.344,9.395c-1.219,3.801-1.522,7.827-1.767,11.811
					C85.873,309.856,85.598,322.276,85.809,334.688z"/>
				<path style="fill:#09222F;" d="M79.258,281.231c2.666-1.996,6.149-3.361,7.223-6.457c0.76-2.191,0.042-4.648,0.598-6.899
					c1.897-7.685,10.865-4.8,16.067-6.83c6.005-2.344,8.464-9.672,16.523-7.357c1.996,0.573,3.851,1.795,5.927,1.803
					c3.823,0.015,6.716-4.025,10.538-4.139c2.293-0.068,4.35,1.301,6.23,2.615c1.902,1.329,3.805,2.658,5.707,3.988
					c1.682,1.175,3.414,2.403,4.464,4.165c1.158,1.942,1.349,4.299,1.379,6.56c0.038,2.809-0.165,5.755-1.629,8.153
					c-1.524,2.496-4.25,4.069-7.079,4.815c-2.594,0.684-5.368,0.342-7.893,1.163c-2.542,0.828-4.556,2.279-7.353,2.727
					c-4.697,0.753-10.691-0.781-14.582,2.674c-3.56,3.161-2.84,8.175-4.829,12.147c-1.352,2.7-3.65,4.404-5.977,6.212
					c-3.506,2.724-6.515,5.782-8.85,9.583c-2.041,3.322-7.286,12.939-12.171,8.78c-1.376-1.172-2.12-2.902-2.819-4.569
					c-1.878-4.478-3.79-9.378-2.51-14.061c0.456-1.667,1.305-3.229,1.539-4.941c0.8-5.857-5.679-11.593-3.251-16.982
					C77.097,283.083,78.1,282.098,79.258,281.231z"/>
				<path style="fill:#ED926E;" d="M95.533,302.3c-1.256,1.734-1.849,3.958-1.423,6.051c0.676,3.315,3.915,5.828,7.296,5.95
					c2.438,0.087,4.894-0.967,6.508-2.796c2.668-3.022,3.044-9.319-0.488-11.892c-1.061-0.773-2.413-1.043-3.725-1.071
					c-2.625-0.056-5.308,0.833-7.204,2.649C96.145,301.53,95.822,301.902,95.533,302.3z"/>
				<path style="fill:#FFFFFF;" d="M124.926,320.643c-0.499,2.731,3.467,5.882,5.855,5.846c1.68-0.025,3.493-0.624,4.589-1.957
					c0.368-0.448,0.825-1.249,1.21-2.149c0.48-1.12,0.646-2.132,0.509-2.957C133.089,320.265,129.017,320.72,124.926,320.643z"/>
				<path style="fill:#ED926E;" d="M242.997,320.479c-0.017-0.009-0.034-0.017-0.052-0.026c-1.616-0.812-3.367,0.02-3.901,1.703
					c-0.006,0.018-0.011,0.037-0.018,0.055c-0.008,0.026-0.008,0.049-0.016,0.074c-0.88,3.054-3.182,6.187-5.061,8.701
					c-1.015,1.358-2.105,2.663-3.263,3.901c-0.438,0.468-0.904,0.832-1.278,1.342c-0.157,0.214-0.308,0.426-0.466,0.628
					c-0.098-0.129-0.191-0.261-0.292-0.387c0.843-1.166,1.726-2.308,2.535-3.507c1.171-1.737,2.336-3.477,3.495-5.222
					c2.285-3.44,4.546-6.895,6.779-10.369c1.875-2.915-2.849-5.486-4.713-2.586c-3.928,6.109-7.945,12.158-12.023,18.167
					c-0.231-0.137-1.623-0.473-2.729-0.748c-0.692-0.172-1.022-0.961-0.66-1.576c2.456-4.164,4.912-8.329,7.368-12.493
					c1.973-3.346-3.599-5.696-5.203-1.259c-1.454,2.53-10.887,18.167-13.13,20.02c-0.976,0.807-1.914,1.636-2.817,2.493
					c1.256-3.412,1.942-6.962,2.122-10.646c0.17-3.463-5.208-3.362-5.377,0.078c-0.356,7.252-4.427,13.801-8.305,19.678
					c-3.398,5.149-5.863,11.077-6.038,17.244c-0.341,12.022,1.055,23.883-1.28,35.673c-3.233,16.326-7.75,31.472-8.415,48.321
					c-0.202,5.133-0.186,10.32,0.891,15.343c0.958,4.465,2.734,8.707,4.536,12.903c1.749,4.071,3.58,8.202,6.523,11.515
					c2.943,3.313,7.225,5.735,11.642,5.368c8.202-0.682,12.642-9.826,14.708-17.792c6.086-23.461,1.55-43.936,2.054-67.256
					c0.107-4.954,0.067-9.91-0.413-14.842c-0.653-6.706-1.305-13.411-1.957-20.117c-0.17-1.748-0.339-3.523-0.023-5.251
					c0.441-2.408,1.842-3.45,3.44-5.063c5.41-5.461,10.055-11.564,14.051-18.122c3.157-5.183,9.43-8.004,9.987-14.837
					c0.215-2.645-2.887-3.191-4.477-1.766c1.069-1.819,2.023-3.715,2.837-5.692c0.084-0.204,0.143-0.418,0.195-0.664
					C244.495,322.313,244.179,321.073,242.997,320.479z M240.324,331.665c-0.188,2.307-1.89,4.398-3.333,6.083
					c-0.891,1.04-1.954,1.949-2.823,3.001c-0.616,0.747-1.158,1.507-1.8,2.211c-0.2-0.487-0.418-0.978-0.649-1.468
					c0.025-0.03,0.044-0.065,0.069-0.095c1.381-1.642,3.086-3.023,4.493-4.677c0.773-0.908,1.515-1.844,2.221-2.805
					c0.573-0.78,1.664-1.886,1.925-2.821C240.378,331.274,240.341,331.463,240.324,331.665z"/>
				<g>
					<defs>
						<path id="SVGID_00000067949649721374896040000014886361742052046474_" d="M77.209,334.798c-0.312,1.002-0.558,2.02-0.55,3.064
							c0.01,1.336,0.436,2.632,0.89,3.888c3.39,9.389,7.559,18.496,18.603,19.179c7.324,0.453,15.647-2.164,21.143-7.101
							c1.763-1.584,3.474-3.273,4.683-5.311c1.224-2.065,1.557-4.247,1.554-6.629c6.447-1.338,11.784-5.247,14.94-11.048
							c6.037-11.099,4.774-24.863,4.331-36.986c-0.232-6.327-0.505-12.84-3.122-18.605c-0.742-1.635-1.709-3.236-3.175-4.272
							c-1.544-1.091-3.48-1.448-5.359-1.65c-3.097-0.333-6.231-0.32-9.326,0.037c-1.386,0.16-2.725,0.541-4.098,0.593
							c-1.485,0.057-2.944,0.034-4.425,0.226c-5.866,0.762-11.377,3.338-16.045,6.922c-8.466,6.5-12.917,17.322-15.306,27.397
							c-0.999,4.213-0.198,9.291-0.768,13.69c-0.669,5.159-1.84,10.253-3.499,15.183C77.521,333.847,77.357,334.321,77.209,334.798z
							"/>
					</defs>
					<clipPath id="SVGID_00000129917954518954142340000014642018525332808356_">
						<use xlink:href="#SVGID_00000067949649721374896040000014886361742052046474_"  style="overflow:visible;"/>
					</clipPath>
					<path style="clip-path:url(#SVGID_00000129917954518954142340000014642018525332808356_);fill:#09222F;" d="M118.347,345.342
						c1.636,0.832,3.338,1.552,5.079,2.164c0.299-0.618,0.55-1.263,0.717-1.955c0.296-1.226,0.361-2.492,0.414-3.761
						c-4.436,0.09-9.588-0.376-13.731-2.308C112.675,342.069,115.584,343.936,118.347,345.342z"/>
				</g>
				<path style="fill:#09222F;" d="M104.428,301.93c-2.763-1.131-6.221,1.952-6.321,4.655c-0.083,2.266,1.941,4.985,4.395,4.787"/>
				<path style="fill:none;stroke:#000000;stroke-miterlimit:10;" d="M207.323,339.398c0.398,2.286,0.797,4.594,0.684,6.911
					c-0.113,2.317-0.784,4.677-2.3,6.433"/>
			</g>
			<path style="fill:none;stroke:#000000;stroke-miterlimit:10;" d="M182.465,422.565c-0.444,10.18-1.618,20.327-3.509,30.339"/>
			<path style="fill:none;stroke:#000000;stroke-miterlimit:10;" d="M62.353,465.275c1.869-19.681,2.643-26.313,4.511-45.995"/>
			<path style="fill:none;stroke:#000000;stroke-miterlimit:10;" d="M155.467,425.549c-1.263-10.865-2.526-21.73-3.789-32.595"/>
		</g>
		<g style="clip-path:url(#XMLID_00000005261918765580349390000015734833637630443911_);">
			<g>
				<g id="XMLID_42_">
					<g id="XMLID_43_">
						<path style="fill:#ED926E;" d="M656.634,429.349c-10.248,22.974-18.059,47.02-21.238,71.525
							c-1.132,8.729-1.612,17.722,0.661,26.225c2.274,8.503,7.667,16.526,15.67,20.189c4.342,1.987,9.883,2.446,13.566-0.594
							c2.058-1.698,3.227-4.218,4.275-6.672c12.648-29.619,17.16-62.527,33.258-90.464
							C688.117,441.42,672.388,435.187,656.634,429.349z"/>
						<path style="fill:#2AD1BE;" d="M749.213,352.071c-6.987-11.359-22.887-6.099-32.727-1.434
							c-16.992,8.056-29.853,16.358-39.656,32.271c-10.451,16.963-21.568,34.518-30.439,52.412c3.161,2.243,6.401,4.375,9.726,6.369
							c10.187,6.107,21.223,11.408,32.761,14.374c4.405,1.132,9.004,2.029,13.517,3.184c12.542-19.505,26.049-38.463,38.112-58.227
							C748.56,387.825,758.396,367.005,749.213,352.071z"/>
					</g>
				</g>
				<g id="XMLID_39_">
					<g id="XMLID_40_">
						<path style="fill:#ED926E;" d="M729.32,358.758c0.966,2.263,2.74,4.25,4.458,6.079c1.77,1.884,3.554,3.76,5.494,5.467
							c8.614,7.58,20.308,11.553,31.757,10.789c9.39-0.599,18.552-4.451,25.673-10.575c7.216-6.206,12.013-15.32,13.548-24.632
							c-3.841-0.76-7.734-1.538-11.238-3.284c-3.504-1.746-6.633-4.608-7.821-8.338c-0.568-1.784-0.672-3.677-0.772-5.546
							c-0.341-6.391-0.682-12.782-1.023-19.173c-0.214-4.005-0.275-8.03-0.206-12.048c0.083-4.835,0.872-9.582,0.325-14.471
							c-1.066-9.544-5.694-18.125-13.54-23.774c-8.613-6.202-22.743-9.944-30.747-0.84c-4.902,5.575-4.483,11.518-5.093,18.287
							c-0.678,7.527-1.44,15.566-0.868,23.118c0.654,8.63,4.166,17.949,14.241,18.325c0.635,4.691,0.591,9.473-0.13,14.152
							c-0.831,5.395-3.132,10.395-8.8,11.889c-2.906,0.766-5.97,0.758-8.887,1.48C729.523,347.188,726.805,352.868,729.32,358.758z"
							/>
					</g>
				</g>
				<path style="fill:#09222F;" d="M803.563,251.359c-2.022-2.201-4.203-4.259-6.717-5.861c-12.748-8.12-30.774-3.251-44.45-0.783
					c-3.984,0.719-8.177,1.535-11.239,4.186c-7.904,6.847,0.275,14.931,8.154,15.483c2.734,0.192,5.486-1.26,7.969-2.194
					c3.981-1.497,8.385-2.25,12.502-1.181c4.613,1.199,8.322,4.905,10.026,9.294c0.831,2.142,1.405,4.842,0.922,7.136
					c-0.294,1.394-2.221,4.18,0.246,4.955c0.382,0.12,0.792,0.078,1.198,0.11c10.875,0.873-3.12,33.193,5.031,39.51
					c2.317,1.796,5.454,2.046,8.386,2.018c11.946-0.112,25.892-3.638,35.224-11.381c-8.584-2.622-6.987-8.299-8.364-15.207
					c-1.768-8.865-3.762-19.517-6.972-27.96c-2.331-6.132-6.199-11.583-10.474-16.507
					C804.532,252.433,804.052,251.892,803.563,251.359z"/>
				<g id="XMLID_36_">
					<g id="XMLID_37_">
						<g id="XMLID_38_">
							<path style="fill:#2AD1BE;" d="M705.02,416.223c-2.79,24.476-2.364,57.989-3.636,86.956h136.242
								c-0.656-13.132-1.163-26.286-0.997-39.426c0.265-20.898,2.611-41.676,1.938-62.586c-0.005-0.144-0.014-0.289-0.019-0.433
								c-0.25-7.528-3.55-15.612-5.34-22.886c-1.856-7.539-1.774-15.874-1.418-23.599c-10.176-6.667-21.111-7.849-31.666-11.774
								c-2.901,7.653-6.147,15.648-12.564,20.727c-2.7,2.137-5.868,3.658-9.193,4.549c-7.688,2.061-16.242,0.626-22.837-3.832
								c-6.594-4.457-11.115-11.86-12.069-19.762c-3.529,0.238-16.401,1.682-19.635,3.426c-9.573,5.16,1.032,22.735-0.067,32.651
								C721.951,396.535,706.878,399.927,705.02,416.223z"/>
						</g>
					</g>
				</g>
				<g id="XMLID_33_">
					<g id="XMLID_34_">
						<g id="XMLID_35_">
							<path style="fill:#ED926E;" d="M902.697,459.809c-2.547-13.144-5.722-25.923-9.086-38.617
								c-1.749,1.393-3.523,2.724-5.325,3.975c-13.641,9.472-28.494,14.635-43.425,17.902c1.113,5.491,2.2,10.993,3.225,16.519
								c2.154,11.612,4.085,23.327,5.506,35.171c0.802,6.689,1.455,13.453,1.79,20.241h50.233c0.683-4.097,1.111-8.289,1.283-12.47
								C907.493,488.108,905.396,473.731,902.697,459.809z"/>
							<path style="fill:#2AD1BE;" d="M861.888,501.324c-1.72-17.212-6.265-34.086-11.092-50.648
								c-0.177-0.607,0.164-1.165,0.795-1.258c4.542-0.676,9.069-1.458,13.564-2.399c13.548-2.836,26.816-7.224,38.906-13.961
								c-1.966-5.151-3.98-10.288-5.974-15.443c-5.163-13.347-6.191-27.679-14.898-39.66c-10.359-14.254-27.709-21.553-44.661-26.36
								c-12.194-3.458-24.653-5.982-37.232-7.542c0.702,9.384-1.818,18.748,4.899,25.777c4.028,4.215,15.566,10.967,15.566,17.622
								c1.878,11.866,1.869,24.32,2.876,36.302c1.452,17.273,3.349,34.527,4.61,51.814c0.789,10.815,4.459,20.024,9.443,29.072
								h23.485C862.094,503.533,861.998,502.428,861.888,501.324z"/>
						</g>
					</g>
				</g>
				<path style="fill:#FFFFFF;" d="M744.25,299.541c2.999,6.725,8.449,7.038,11.965,0.688"/>
				<path style="fill:none;stroke:#000000;stroke-width:2;stroke-miterlimit:10;" d="M771.641,285.209
					c-0.171,4.868-4.256,8.675-9.124,8.504c-4.868-0.171-8.675-4.256-8.504-9.124c0.171-4.868,4.256-8.675,9.124-8.504
					C768.005,276.256,771.812,280.341,771.641,285.209z"/>
				<path style="fill:none;stroke:#000000;stroke-width:2;stroke-miterlimit:10;" d="M746.907,284.269
					c-0.171,4.868-4.256,8.675-9.124,8.504c-4.868-0.171-8.675-4.256-8.504-9.124c0.171-4.868,4.256-8.675,9.124-8.504
					C743.271,275.316,747.078,279.401,746.907,284.269z"/>
				
					<line style="fill:none;stroke:#000000;stroke-width:2;stroke-miterlimit:10;" x1="746.041" y1="284.84" x2="753.995" y2="285.12"/>
				
					<line style="fill:none;stroke:#000000;stroke-width:2;stroke-miterlimit:10;" x1="770.777" y1="283.561" x2="785.817" y2="279.067"/>
				<path style="fill:#ED926E;" d="M778.774,281.533c0.451-1.725,2.055-3.075,3.399-4.121c1.7-1.323,4.035-1.912,6.081-1.238
					c0.905,0.298,1.725,0.826,2.424,1.473c2.231,2.066,3.16,5.411,2.38,8.35c-0.779,2.939-3.204,5.366-6.124,6.216
					c-1.941,0.565-4.274,0.368-5.65-1.114c-0.735-0.792-1.109-1.845-1.464-2.866c-0.579-1.665-1.343-4.391-1.146-6.16
					C778.693,281.89,778.727,281.71,778.774,281.533z"/>
				<path style="fill:#09222F;" d="M788.555,281.082c-4.853-2.607-7.595,1.049-7.42,3.611"/>
				<g>
					<defs>
						<path id="SVGID_00000017488274970239817890000009145365911317613197_" d="M729.32,358.758c0.966,2.263,2.74,4.25,4.458,6.079
							c1.77,1.884,3.554,3.76,5.494,5.467c8.614,7.58,20.308,11.553,31.757,10.789c9.39-0.599,18.552-4.451,25.673-10.575
							c7.216-6.206,12.013-15.32,13.548-24.632c-3.841-0.76-7.734-1.538-11.238-3.284c-3.504-1.746-6.633-4.608-7.821-8.338
							c-0.568-1.784-0.672-3.677-0.772-5.546c-0.341-6.391-0.682-12.782-1.023-19.173c-0.214-4.005-0.275-8.03-0.206-12.048
							c0.083-4.835,0.872-9.582,0.325-14.471c-1.066-9.544-5.694-18.125-13.54-23.774c-8.613-6.202-22.743-9.944-30.747-0.84
							c-4.902,5.575-4.483,11.518-5.093,18.287c-0.678,7.527-1.44,15.566-0.868,23.118c0.654,8.63,4.166,17.949,14.241,18.325
							c0.635,4.691,0.591,9.473-0.13,14.152c-0.831,5.395-3.132,10.395-8.8,11.889c-2.906,0.766-5.97,0.758-8.887,1.48
							C729.523,347.188,726.805,352.868,729.32,358.758z"/>
					</defs>
					<clipPath id="SVGID_00000034791002650225313160000009474955503114391735_">
						<use xlink:href="#SVGID_00000017488274970239817890000009145365911317613197_"  style="overflow:visible;"/>
					</clipPath>
					<path style="clip-path:url(#SVGID_00000034791002650225313160000009474955503114391735_);" d="M766.39,315.186
						c-2.138,4.694-8.99,12.118-14.836,9.017c-0.84-0.446-1.568-1.206-1.733-2.143c-0.221-1.253,0.627-2.497,1.721-3.147
						c1.093-0.65,2.391-0.838,3.649-1.03c2.001-0.305,3.998-0.652,5.964-1.137c0.98-0.242,1.954-0.516,2.911-0.837
						C764.343,315.816,766.276,315.434,766.39,315.186z"/>
				</g>
				<path style="fill:#FFFFFF;" d="M759,408.251c-4.322,2.109-7.324,6.745-7.51,11.598c-0.186,4.852,2.453,9.71,6.6,12.151"/>
				<path style="fill:#FFFFFF;" d="M809.877,440.291c-3.858-3.656-10.227-3.783-14.832-1.128c-4.605,2.655-7.557,7.584-8.894,12.729
					"/>
				<path style="fill:#FFFFFF;" d="M766.649,467.814c0.129,5.124,5.109,9.063,10.176,9.837c5.067,0.773,10.162-0.827,15.038-2.407"
					/>
				<path style="fill:#FFFFFF;" d="M827.001,470.401c-3.516,1.576-6.264,4.775-7.292,8.488c-1.028,3.713-0.316,7.87,1.889,11.03"/>
				<path style="fill:#FFFFFF;" d="M800.549,409.766c3.358-1.895,7.673-1.974,11.098-0.202s5.854,5.338,6.249,9.174"/>
				<path style="fill:#FFFFFF;" d="M739.61,466.515c-6.486,4.86-8.023,15.142-3.241,21.687"/>
				<path style="fill:#FFFFFF;" d="M721.391,442.207c4.252-0.69,7.721-4.15,9.223-8.188c1.502-4.038,1.266-8.549,0.21-12.726"/>
				<path style="fill:#FFFFFF;" d="M687.154,410.444c-1.264,3.533-0.896,7.613,0.98,10.863c1.875,3.25,5.224,5.61,8.915,6.284"/>
				<path style="fill:#FFFFFF;" d="M701.957,379.698c3.122-2.017,7.564,0.066,9.372,3.314c1.808,3.248,1.716,7.177,1.576,10.891"/>
				<path style="fill:#FFFFFF;" d="M799.221,392.69c-2.87-1.715-6.576-0.069-9.195,2.01c-3.691,2.93-6.856,7.632-5.407,12.116"/>
				<path style="fill:#FFFFFF;" d="M803.758,361.759c-1.593,3.333,1.203,7.423,4.711,8.582c3.507,1.159,7.324,0.264,10.906-0.638"/>
				<path style="fill:#FFFFFF;" d="M862.731,422.584c-2.872,1.521-5.667,3.527-7.096,6.445c-1.43,2.919-1.064,6.912,1.546,8.849"/>
				<path style="fill:#FFFFFF;" d="M845.199,394.373c-1.195,4.363,2.277,9.01,6.603,10.334c4.326,1.324,9.059,0.022,13.049-2.109"/>
				<path style="fill:#FFFFFF;" d="M866.018,382.917c3.483-1.674,7.703,0.617,10.034,3.7c2.331,3.083,3.524,6.894,5.765,10.043"/>
				<path style="fill:#FFFFFF;" d="M885.549,414.363c1.333,0.179,2.05,1.654,2.351,2.965c1.341,5.846-1.233,12.391-6.197,15.758"/>
				<path style="fill:#FFFFFF;" d="M847.823,374.477c-4.103-0.573-8.435,0.788-11.473,3.605c-3.038,2.817-4.722,7.034-4.459,11.169"
					/>
				<path style="fill:#FFFFFF;" d="M658.068,427.258c1.974-0.792,4.184-0.918,6.272-0.514c2.987,0.579,5.814,2.319,7.335,4.955
					c1.521,2.635,1.549,6.171-0.25,8.625"/>
				<path style="fill:#FFFFFF;" d="M674.609,401.892c1.68,0.992,3.813,0.825,5.675,0.241c5.689-1.786,9.924-7.453,10.025-13.415"/>
				<path style="fill:#FFFFFF;" d="M717.13,359.23c1.112,3.127,4.268,5.412,7.586,5.493c3.318,0.081,6.581-2.048,7.844-5.117"/>
				<path style="fill:#FFFFFF;" d="M754.582,381.902c-3.366-1.125-7.116,0.569-9.621,3.083c-4.404,4.419-5.912,11.487-3.696,17.319"
					/>
			</g>
			<path style="fill:none;stroke:#09222F;stroke-miterlimit:10;" d="M838.745,410.218c4.515,12.834,8.56,25.834,12.127,38.964"/>
			<path style="fill:none;stroke:#09222F;stroke-miterlimit:10;" d="M701.5,461.5c2.946-10.059,7.626-45.092,10.572-55.15"/>
		</g>
		<g style="clip-path:url(#XMLID_00000005261918765580349390000015734833637630443911_);">
			<g>
				<g>
					<path style="fill:#FFCA00;" d="M194.668,203.928c13.506-16.331,36.179-19.357,56.472-19.797
						c15.849-0.343,32.155,3.109,45.153,12.185c20.621,14.399,16.991,40.537-5.032,50.155
						c-25.808,11.271-57.502,10.866-84.301,3.647C185.984,244.467,180.619,220.915,194.668,203.928z"/>
					<path style="fill:#FFCA00;" d="M269.21,248.443c-3.553,16,3.323,29.839,15.337,40.665c-8.638-2.179-18.059-7.374-22.814-15.088
						c-4.755-7.715-6.768-16.634-4.985-25.577"/>
				</g>
				<path style="fill:none;stroke:#000000;stroke-miterlimit:10;" d="M209.779,231.872c-2.772-2.286-2.543-6.77-0.729-9.871
					c2.387-4.08,7.104-6.68,11.828-6.52c4.724,0.16,9.255,3.074,11.36,7.305c1.094,2.2,1.372,5.256-0.556,6.778
					c-2.418,1.909-6.336-0.65-6.533-3.725c-0.197-3.075,2.123-5.784,4.749-7.396c5.069-3.112,11.793-3.316,17.041-0.516
					c2.263,1.207,4.323,3.038,5.154,5.464c0.831,2.426,0.12,5.476-2.072,6.808c-0.371,0.225-0.815,0.402-1.232,0.282
					c-0.653-0.188-0.902-0.972-0.991-1.646c-0.754-5.765,3.405-11.757,9.069-13.066c5.664-1.31,12.031,2.249,13.884,7.759
					c0.471,1.4,0.613,3.113-0.387,4.199c-1.837,1.995-5.491-0.558-5.274-3.261c0.217-2.703,2.625-4.662,4.963-6.037
					c2.633-1.549,5.542-2.823,8.596-2.855c3.054-0.032,6.271,1.412,7.647,4.139"/>
			</g>
			<g>
				<g>
					<path style="fill:#2AD1BE;" d="M410.5,229.091c-9.472,7.138-11.564,16.675,3.37,28.28c5.033,3.911,11.11,6.255,17.256,7.944
						c21.99,6.044,49.641,3.25,68.223-10.772c4.686-3.536,9.128-8.294,9.546-14.15c0.344-4.822-2.216-9.518-5.832-12.727
						c-3.616-3.209-8.186-5.131-12.781-6.636C466.573,213.263,431.278,213.434,410.5,229.091z"/>
					<path style="fill:#2AD1BE;" d="M480.322,242.993c-6.105,13.943-1.707,31.734,10.192,41.226
						c-7.139-2.238-14.134-5.477-19.498-10.692c-5.364-5.216-8.92-12.647-8.185-20.092"/>
				</g>
				<path style="fill:none;stroke:#000000;stroke-miterlimit:10;" d="M416.246,246.633c-0.086-2.157,1.773-3.832,3.468-5.169
					c2.621-2.067,5.411-4.21,8.718-4.671c3.306-0.461,7.196,1.487,7.598,4.801c0.3,2.468-1.343,4.735-3.088,6.507
					c-0.794,0.806-2.125,1.587-2.935,0.797c-0.359-0.35-0.442-0.893-0.458-1.394c-0.174-5.465,5.207-9.602,10.522-10.886
					c3.864-0.934,8.351-0.741,11.282,1.944c2.931,2.686,2.996,8.361-0.571,10.115c-0.738,0.363-1.601,0.535-2.39,0.306
					c-2.609-0.758-2.267-4.667-0.781-6.941c3.006-4.601,8.465-7.492,13.96-7.393c3,0.054,6.094,1.025,8.165,3.196
					c2.072,2.171,2.866,5.668,1.408,8.29c-0.428,0.769-1.062,1.464-1.891,1.758c-1.783,0.631-3.774-0.946-4.143-2.801
					c-0.369-1.855,0.474-3.75,1.598-5.271c3.843-5.201,11.413-7.253,17.357-4.705c2.314,0.992,4.449,2.722,5.265,5.103
					c0.816,2.381-0.067,5.417-2.348,6.482c-2.281,1.065-5.53-0.771-5.317-3.279c0.101-1.189,0.866-2.219,1.724-3.048
					c3.645-3.52,9.023-4.395,14.044-5.075"/>
			</g>
			<g>
				<g>
					<path style="fill:#FFCA00;" d="M745.857,169.045c0.844,1.437,1.513,3.017,1.966,4.76c4.044,15.535-13.937,23.37-26.181,26.657
						c-14.283,3.833-29.078,5.08-43.814,4.05c-12.779-0.893-26.153-1.048-36.969-9.051c-8.825-6.529-13.95-19.202-8.812-28.903
						c4.663-8.804,15.508-12.106,25.36-13.587c22.345-3.359,49.466-3.751,71,3.88C735.271,159.285,742.201,162.819,745.857,169.045z
						"/>
					<path style="fill:#FFCA00;" d="M680.257,185.006c-5.769,14.821-1.289,33.036,10.697,43.49
						c-10.879-3.249-20.302-11.099-25.461-21.213c-5.16-10.113-5.984-22.35-2.229-33.065"/>
				</g>
				<path style="fill:none;stroke:#000000;stroke-miterlimit:10;" d="M666.941,169.365c-3.414,0.513-6.766,2.318-8.483,5.314
					c-1.717,2.995-1.399,7.218,1.208,9.482c2.775,2.41,6.988,2.018,10.51,0.965c3.906-1.167,7.921-3.276,9.522-7.026
					c0.407-0.954,0.639-2.02,0.419-3.034c-0.535-2.457-3.833-3.634-6.033-2.417c-2.2,1.218-3.069,4.165-2.338,6.57
					c0.731,2.406,2.775,4.248,5.073,5.266c6.442,2.854,14.958-1.099,16.938-7.86c0.303-1.036,0.445-2.238-0.172-3.125
					c-1.015-1.459-3.555-0.947-4.426,0.603s-0.43,3.537,0.474,5.068c2.073,3.515,6.393,5.394,10.457,5.029
					c4.064-0.365,7.79-2.754,10.284-5.983c1.293-1.674,2.273-4.103,1.025-5.811c-1.301-1.78-4.39-1.311-5.615,0.522
					c-1.225,1.833-0.873,4.363,0.236,6.268c2.009,3.451,6.424,5.302,10.293,4.317c3.87-0.985,6.861-4.722,6.976-8.713"/>
			</g>
			<g>
				<g>
					<path style="fill:#FF642E;" d="M831.048,176.549c15.54-1.42,31.329-0.076,46.405,3.951c8.262,2.207,16.564,5.369,22.71,11.317
						c6.145,5.947,9.683,15.224,6.862,23.297c-2.263,6.477-8.092,11.083-14.227,14.155c-12.163,6.09-26.146,7.453-39.748,7.342
						c-16.613-0.135-53.975,0.399-63.162-17.979C777.23,193.311,812.219,178.27,831.048,176.549z"/>
					<path style="fill:#FF642E;" d="M861.817,216.931c3.823,15.505-2.915,33.054-16.132,42.017
						c10.575-1.551,20.472-7.315,27.038-15.747c6.566-8.432,9.73-19.44,8.642-30.072"/>
				</g>
				<path style="fill:none;stroke:#000000;stroke-miterlimit:10;" d="M803.821,213.067c-0.694-2.597,0.536-5.434,2.537-7.228
					c2.001-1.794,4.65-2.696,7.287-3.219c4.504-0.895,10.254-0.148,12.005,4.096c1.71,4.145-2.261,9.071-6.738,9.321
					c-1.831-3.457-0.256-7.984,2.745-10.493c3.001-2.509,7.056-3.361,10.961-3.584c3.505-0.2,7.191,0.088,10.192,1.909
					c3.001,1.821,5.08,5.521,4.104,8.893c-0.604,2.087-3.044,3.899-4.902,2.773c-1.808-1.096-1.483-3.842-0.525-5.727
					c3.917-7.704,15.157-10.456,22.19-5.433c2.058,1.47,3.81,3.645,3.976,6.169s-1.78,5.231-4.309,5.202
					c-1.519-4.735,1.163-10.225,5.54-12.585c4.377-2.361,9.959-1.835,14.267,0.649c0.463,0.267,0.973,0.665,0.927,1.198
					c-0.046,0.532-1.078,0.614-0.989,0.087"/>
			</g>
			<g>
				<g>
					<path style="fill:#FF642E;" d="M418.796,116.747c-13.891-1.27-28.005-0.068-41.482,3.532c-7.385,1.973-14.807,4.8-20.3,10.116
						c-5.493,5.316-8.656,13.609-6.134,20.825c2.023,5.79,7.234,9.907,12.718,12.653c10.873,5.444,23.372,6.662,35.531,6.563
						c14.851-0.121,48.249,0.357,56.461-16.072C466.905,131.731,435.628,118.286,418.796,116.747z"/>
					<path style="fill:#FF642E;" d="M381.503,159.695c2.65,13.86-2.021,29.547-11.182,37.559c7.33-1.386,14.19-6.539,18.742-14.077
						c4.552-7.538,6.744-17.378,5.99-26.882"/>
				</g>
				<path style="fill:none;stroke:#000000;stroke-miterlimit:10;" d="M443.134,149.392c0.621-2.321-0.479-4.858-2.268-6.462
					c-1.789-1.604-4.157-2.41-6.514-2.878c-4.026-0.8-9.166-0.133-10.731,3.661c-1.529,3.705,2.021,8.109,6.023,8.332
					c1.636-3.09,0.229-7.137-2.454-9.38c-2.683-2.243-6.307-3.005-9.798-3.204c-3.133-0.178-6.428,0.078-9.111,1.706
					c-2.683,1.628-4.541,4.935-3.668,7.949c0.54,1.865,2.721,3.485,4.382,2.479c1.616-0.98,1.326-3.435,0.469-5.12
					c-3.501-6.887-13.549-9.347-19.836-4.857c-1.839,1.314-3.405,3.257-3.554,5.512c-0.325,4.932,7.231,2.605,2.78-3.218
					c-2.839-3.714-8.508-4.529-12.719-3.09c-2.48,0.848-4.769,2.57-5.762,4.995c-0.505,1.233-0.518,2.92,0.619,3.615
					c0.735,0.45,1.682,0.307,2.506,0.056c0.933-0.284,1.857-0.706,2.512-1.428c1.477-1.628,1.057-4.414-0.533-5.931
					c-1.59-1.518-3.999-1.911-6.167-1.549c-2.168,0.361-4.163,1.379-6.118,2.383"/>
			</g>
			<g>
				<g>
					<path style="fill:#2AD1BE;" d="M35.27,185.208c6.166,4.505,13.808,6.439,21.31,7.868c9.317,1.775,18.753,2.923,28.224,3.433
						c12.233,0.659,24.769,0.207,36.282-3.982c14.129-5.142,34.574-22.188,21.98-38.598c-4.841-6.308-12.657-9.548-20.329-11.638
						c-25.283-6.888-54.166-4.59-78.757,4.198C27.132,152.509,17.001,171.86,35.27,185.208z"/>
					<path style="fill:#2AD1BE;" d="M65.599,169.655c-0.351,9.515-0.701,19.029-1.052,28.544c-0.123,3.341-0.241,6.733,0.558,9.979
						c2.563,10.407,13.769,16.401,24.369,17.99c-9.593-2.463-13.572-14.392-12.242-24.206c1.329-9.814,6.215-18.858,7.716-28.648"/>
				</g>
				<path style="fill:none;stroke:#000000;stroke-miterlimit:10;" d="M39.909,167.553c0.896,3.946,5.49,6.197,9.499,5.648
					c4.009-0.549,7.413-3.213,10.173-6.172c1.627-1.744,3.04-4.729,1.19-6.236c-1.059-0.863-2.676-0.61-3.836,0.112
					c-2.978,1.854-3.641,6.313-1.821,9.312c1.82,2.999,5.547,4.498,9.049,4.291c3.502-0.207,6.775-1.895,9.528-4.07
					c1.781-1.407,3.488-3.217,3.74-5.474c0.252-2.256-1.7-4.794-3.921-4.323c-1.784,0.379-2.757,2.4-2.803,4.224
					c-0.117,4.667,4.339,8.609,8.995,8.949c4.657,0.34,9.148-2.248,12.21-5.773c1.551-1.786,2.562-5.021,0.47-6.127
					c-1.82-0.963-3.923,1.068-4.314,3.089c-0.93,4.801,3.835,9.423,8.726,9.422c4.891-0.001,9.235-3.61,11.398-7.997
					c0.859-1.741,0.989-4.523-0.904-4.957c-1.05-0.241-2.084,0.512-2.713,1.387c-2.67,3.716,0.012,9.603,4.413,10.859
					c4.401,1.255,9.273-1.443,11.497-5.443c1.086-1.954,1.657-4.192,1.64-6.427"/>
			</g>
			<g>
				<g>
					<path style="fill:#2AD1BE;" d="M604.606,106.226c-5.658,3.599-12.662,5.447-19.412,6.733
						c-8.391,1.599-16.889,2.632-25.419,3.091c-17.559,0.946-40.669,0.906-53.679-12.891c-6.156-6.529-8.995-16.917-4.548-24.711
						c1.964-3.443,5.117-6.065,8.491-8.146c8.573-5.289,18.695-7.443,28.682-8.76c17.324-2.285,35.05-2.303,52.162,1.238
						c7.774,1.609,15.902,4.277,20.809,10.518c4.432,5.637,5.429,13.624,3.063,20.393
						C612.766,99.381,609.113,103.359,604.606,106.226z"/>
					<path style="fill:#2AD1BE;" d="M567.051,93.103c-0.316,8.569-0.632,17.138-0.948,25.707c-0.111,3.009-0.217,6.064,0.503,8.987
						c2.308,9.373,12.401,14.771,21.947,16.202c-8.639-2.218-12.223-12.962-11.026-21.8s5.598-16.984,6.949-25.801"/>
				</g>
				<path style="fill:none;stroke:#000000;stroke-miterlimit:10;" d="M516.687,89.973c0.807,3.554,4.945,5.581,8.555,5.086
					c3.61-0.495,6.676-2.894,9.162-5.558c1.466-1.571,2.738-4.259,1.072-5.616c-0.954-0.777-2.411-0.55-3.455,0.101
					c-2.682,1.669-3.279,5.686-1.64,8.387c1.639,2.701,4.996,4.051,8.15,3.864c3.154-0.187,6.102-1.707,8.581-3.665
					c1.604-1.268,3.141-2.898,3.368-4.93c0.227-2.032-1.531-4.318-3.531-3.893c-1.607,0.341-2.483,2.161-2.525,3.804
					c-0.106,4.204,3.908,7.754,8.101,8.06c4.194,0.306,8.239-2.025,10.996-5.2c1.397-1.609,2.307-4.522,0.424-5.518
					c-1.639-0.867-3.533,0.962-3.885,2.782c-0.838,4.324,3.454,8.487,7.859,8.486c4.405-0.001,8.317-3.251,10.265-7.202
					c0.773-1.568,0.89-4.073-0.814-4.465c-0.946-0.217-1.877,0.461-2.443,1.249c-2.405,3.347,0.011,8.649,3.974,9.779
					c3.963,1.131,8.352-1.299,10.354-4.902c0.978-1.76,1.492-3.775,1.477-5.788"/>
			</g>
		</g>
	</g>
</g>
</svg>
